<svg width="412" height="917" viewBox="0 0 412 917" fill="none" xmlns="http://www.w3.org/2000/svg">
<g clip-path="url(#clip0_1_2)">
<rect width="412" height="917" fill="#00999A"/>
<g clip-path="url(#clip1_1_2)">
<rect width="319.612" height="20.3316" transform="translate(36 9)" fill="#00999A"/>
<rect opacity="0.35" x="335.958" y="17.8103" width="17.0798" height="8.40439" rx="1.76207" stroke="#151921" stroke-width="0.813262"/>
<path opacity="0.4" d="M354.257 20.3858V23.6398C354.911 23.3642 355.337 22.7231 355.337 22.0128C355.337 21.3025 354.911 20.6614 354.257 20.3858" fill="#151921"/>
<rect x="337.178" y="19.0303" width="14.6393" height="5.96416" rx="1.08435" fill="#151921"/>
<path d="M323.446 24.2549C324.488 23.3746 326.014 23.3746 327.055 24.2549C327.108 24.3023 327.139 24.3689 327.14 24.4395C327.142 24.5101 327.114 24.5785 327.063 24.628L325.432 26.2725C325.385 26.3209 325.319 26.3477 325.251 26.3477C325.183 26.3476 325.118 26.3207 325.07 26.2725L323.438 24.628C323.388 24.5785 323.361 24.5101 323.362 24.4395C323.364 24.3691 323.394 24.3022 323.446 24.2549ZM321.27 22.0616C323.514 19.9758 326.99 19.9758 329.234 22.0616C329.284 22.1103 329.313 22.1771 329.314 22.2471C329.315 22.3174 329.288 22.3857 329.238 22.4356L328.295 23.3877C328.198 23.4847 328.041 23.4869 327.941 23.3926C327.204 22.7259 326.245 22.3564 325.251 22.3565C324.257 22.357 323.3 22.7264 322.563 23.3926C322.464 23.487 322.307 23.4846 322.21 23.3877L321.266 22.4356C321.217 22.3859 321.19 22.3183 321.19 22.2481C321.191 22.1778 321.22 22.1105 321.27 22.0616ZM319.094 19.8731C322.536 16.5777 327.966 16.5776 331.408 19.8731C331.458 19.922 331.487 19.9889 331.487 20.0586C331.487 20.1283 331.46 20.1957 331.411 20.2452L330.467 21.1973C330.369 21.2949 330.212 21.2961 330.113 21.2002C328.802 19.9546 327.061 19.26 325.252 19.2598C323.442 19.2598 321.701 19.9544 320.389 21.2002C320.291 21.2963 320.133 21.295 320.036 21.1973L319.092 20.2452C319.042 20.1956 319.015 20.1284 319.015 20.0586C319.016 19.9889 319.045 19.922 319.094 19.8731Z" fill="#151921"/>
<path d="M302.75 23.0969C303.2 23.0969 303.564 23.4611 303.564 23.9104V25.5373C303.564 25.9865 303.199 26.3508 302.75 26.3508H301.937C301.488 26.3507 301.123 25.9864 301.123 25.5373V23.9104C301.123 23.4611 301.488 23.0969 301.937 23.0969H302.75ZM310.341 19.5725C310.79 19.5726 311.155 19.9368 311.155 20.3859V25.5373C311.154 25.9863 310.79 26.3506 310.341 26.3508H309.528C309.079 26.3508 308.714 25.9864 308.714 25.5373V20.3859C308.714 19.9367 309.078 19.5725 309.528 19.5725H310.341ZM314.136 17.675C314.585 17.675 314.949 18.0393 314.949 18.4885V25.5373C314.949 25.9865 314.585 26.3508 314.136 26.3508H313.323C312.873 26.3507 312.509 25.9865 312.509 25.5373V18.4885C312.509 18.0393 312.873 17.675 313.323 17.675H314.136ZM306.545 21.4699C306.994 21.4699 307.359 21.8342 307.359 22.2834V25.5363C307.359 25.9855 306.994 26.3498 306.545 26.3498H305.732C305.283 26.3496 304.919 25.9854 304.919 25.5363V22.2834C304.919 21.8343 305.283 21.4701 305.732 21.4699H306.545Z" fill="#151921"/>
<g clip-path="url(#clip2_1_2)">
<path d="M47.0119 28.9052C49.6999 28.9052 51.3112 26.8105 51.3112 23.2876C51.3112 19.3691 49.2092 17.9043 47.0412 17.9043C44.7561 17.9043 43.0935 19.4497 43.0935 21.603C43.0935 23.6465 44.6242 25.0673 46.6018 25.0673C47.9714 25.0673 49.0554 24.3789 49.4655 23.3535H49.4948C49.4948 25.8144 48.6892 27.3745 47.0266 27.3745C46.0598 27.3745 45.3493 26.935 45.0856 26.1001H43.2106C43.5036 27.77 45.0344 28.9052 47.0119 28.9052ZM47.0412 23.6025C45.84 23.6025 44.9465 22.7382 44.9465 21.5298C44.9465 20.3725 45.884 19.457 47.0632 19.457C48.257 19.457 49.1799 20.3798 49.1799 21.5664C49.1799 22.7456 48.2644 23.6025 47.0412 23.6025ZM53.6626 27.1914C54.2485 27.1914 54.71 26.7299 54.71 26.1367C54.71 25.5507 54.2485 25.082 53.6626 25.082C53.0693 25.082 52.6079 25.5507 52.6079 26.1367C52.6079 26.7299 53.0693 27.1914 53.6626 27.1914ZM53.6626 21.7202C54.2485 21.7202 54.71 21.2514 54.71 20.6655C54.71 20.0796 54.2485 19.6108 53.6626 19.6108C53.0693 19.6108 52.6079 20.0796 52.6079 20.6655C52.6079 21.2514 53.0693 21.7202 53.6626 21.7202ZM60.1741 28.9052C62.7742 28.9052 64.3196 26.7739 64.3196 23.3901C64.3196 20.0063 62.7596 17.9116 60.1741 17.9116C57.5814 17.9116 56.014 20.021 56.014 23.3974C56.014 26.7885 57.5667 28.9052 60.1741 28.9052ZM60.1741 27.3598C58.7386 27.3598 57.9183 25.895 57.9183 23.3901C57.9183 20.9292 58.7532 19.457 60.1741 19.457C61.5877 19.457 62.4153 20.9218 62.4153 23.3974C62.4153 25.9023 61.6023 27.3598 60.1741 27.3598ZM65.2281 21.2807H67.0006C67.0006 20.2041 67.8648 19.4277 69.0074 19.4277C70.0548 19.4277 70.7506 20.1308 70.7506 21.0537C70.7506 21.8447 70.443 22.372 69.066 23.727L65.3307 27.4038V28.6928H72.7574V27.1474H67.8282V27.1108L70.1573 24.8256C72.003 23.0092 72.5963 22.1889 72.5963 20.9365C72.5963 19.2373 71.1607 17.9116 69.0074 17.9116C66.8102 17.9116 65.2281 19.3105 65.2281 21.2807Z" fill="#151921"/>
</g>
</g>
<path d="M-0.5 7.5H411.5V853.5H-0.5V7.5Z" fill="#00999A"/>
<path opacity="0.4" fill-rule="evenodd" clip-rule="evenodd" d="M-181.747 -193.635L-4.71305 -100.762C0.124668 -38.6205 4.80833 12.7821 50.0731 119.955C95.3378 227.127 176.192 317.19 262.13 404.808C348.068 492.426 439.091 577.6 494.524 679.884C549.957 782.168 569.801 901.562 579.723 961.259L581.504 995.728L435.415 919.088L325.308 861.325C300.134 808.961 336.421 884.827 286.072 780.099C235.723 675.371 185.374 570.643 135.025 465.915C84.6766 361.186 34.3276 256.458 -16.0213 151.73C-66.3703 47.0018 -116.719 -57.7264 -141.894 -110.091L-167.068 -162.455L-181.747 -193.635Z" fill="#F8FAFF"/>
</g>
<defs>
<clipPath id="clip0_1_2">
<rect width="412" height="917" fill="white"/>
</clipPath>
<clipPath id="clip1_1_2">
<rect width="319.612" height="20.3316" fill="white" transform="translate(36 9)"/>
</clipPath>
<clipPath id="clip2_1_2">
<rect width="43.9167" height="14.6389" fill="white" transform="translate(36.0001 14.6928)"/>
</clipPath>
</defs>
</svg>
